<svg id="Layer_1" enable-background="new 0 0 511.568 511.568" height="512" viewBox="0 0 511.568 511.568" width="512" xmlns="http://www.w3.org/2000/svg">
    <style type="text/css">
        .st0{fill:#4a4a4a;}
    </style>
    <path class="st0" d="m436.845 74.515c-95.296-99.307-266.747-99.314-362.039.003-159.929 159.173-46.451 437.19 179.971 437.017 46.794-.011 93.683-12.768 133.51-36.894 9.448-5.724 12.467-18.021 6.744-27.469s-18.022-12.468-27.468-6.744c-75.471 47.847-183.761 38.641-249.542-18.683l74.646-74.646c87.109 65.652 215.516 1.564 215.157-108.376.104-74.858-61.04-135.731-136-135.185-109.643.294-173.057 128.516-107.46 215.294l-74.64 74.639c-116.256-137.493-16.156-354.105 165.489-353.934 170.655-1.869 276.481 194.293 180.239 335.499-5.976 8.982-4.157 21.268 4.556 27.634 9.243 6.752 22.146 4.399 28.444-5.019 67.979-98.568 54.192-239.888-31.607-323.136zm-164.02 69.02c52.383 0 95 42.617 95 95-5.219 126.03-184.801 125.994-190-.001 0-52.382 42.617-94.999 95-94.999zm-55 95c0-30.327 24.673-55 55-55 11.046 0 20 8.954 20 20s-8.954 20-20 20c-8.271 0-15 6.729-15 15-1.045 26.517-38.947 26.533-40 0z"/></svg>