<?xml version="1.0" encoding="utf-8"?>
<!-- Generator: Adobe Illustrator 22.0.1, SVG Export Plug-In . SVG Version: 6.00 Build 0)  -->
<svg version="1.1" id="Layer_1" xmlns="http://www.w3.org/2000/svg" xmlns:xlink="http://www.w3.org/1999/xlink" x="0px" y="0px"
	 viewBox="0 0 500 500" style="enable-background:new 0 0 500 500;" xml:space="preserve">
<style type="text/css">
	.st0{fill:#4a4a4a;}
</style>
<g>
	<g>
		<path class="st0" d="M42.5,84.5c13.8,0,27.6,0,41.4,0c33.2,0,66.3,0,99.5,0c40.1,0,80.2,0,120.3,0c34.7,0,69.3,0,104,0
			c11.4,0,22.9,0,34.3,0c5.4,0,10.9,0.4,16.3,0c0.2,0,0.5,0,0.7,0c-4.2-4.2-8.3-8.3-12.5-12.5c0,12.1,0,24.2,0,36.3
			c0,29,0,58.1,0,87.1c0,35.1,0,70.3,0,105.4c0,30.4,0,60.7,0,91.1c0,14.7-0.5,29.5,0,44.1c0,0.2,0,0.4,0,0.7c0,16.1,25,16.1,25,0
			c0-12.1,0-24.2,0-36.3c0-29,0-58.1,0-87.1c0-35.1,0-70.3,0-105.4c0-30.4,0-60.7,0-91.1c0-14.7,0.5-29.5,0-44.1c0-0.2,0-0.4,0-0.7
			c0-6.8-5.7-12.5-12.5-12.5c-13.8,0-27.6,0-41.4,0c-33.2,0-66.3,0-99.5,0c-40.1,0-80.2,0-120.3,0c-34.7,0-69.3,0-104,0
			c-16.8,0-33.7-0.6-50.6,0c-0.2,0-0.5,0-0.7,0C26.4,59.5,26.4,84.5,42.5,84.5L42.5,84.5z"/>
	</g>
</g>
<g>
	<g>
		<path class="st0" d="M53.3,443c6.9-10.1,13.8-20.2,20.7-30.3c16.6-24.2,33.2-48.5,49.8-72.7c20.1-29.3,40.1-58.6,60.2-87.9
			c17.3-25.2,34.5-50.5,51.8-75.7c8.4-12.2,17.9-24.3,25.4-37.1c0.1-0.2,0.2-0.4,0.4-0.5c-7.2,0-14.4,0-21.6,0
			c6.9,10.1,13.8,20.2,20.7,30.3c16.6,24.2,33.2,48.5,49.8,72.7c20.1,29.3,40.1,58.6,60.2,87.9c17.3,25.2,34.5,50.5,51.8,75.7
			c8.5,12.3,16.7,24.9,25.4,37.1c0.1,0.2,0.2,0.4,0.4,0.5c3.8,5.6,11,8.1,17.1,4.5c5.5-3.2,8.3-11.5,4.5-17.1
			c-6.9-10.1-13.8-20.2-20.7-30.3c-16.6-24.2-33.2-48.5-49.8-72.7c-20.1-29.3-40.1-58.6-60.2-87.9c-17.3-25.2-34.5-50.5-51.8-75.7
			c-8.5-12.3-16.7-24.9-25.4-37.1c-0.1-0.2-0.2-0.4-0.4-0.5c-5.5-8-16.1-8-21.6,0c-6.9,10.1-13.8,20.2-20.7,30.3
			c-16.6,24.2-33.2,48.5-49.8,72.7c-20.1,29.3-40.1,58.6-60.2,87.9c-17.3,25.2-34.5,50.5-51.8,75.7c-8.4,12.3-17.7,24.3-25.4,37.1
			c-0.1,0.2-0.2,0.4-0.4,0.5c-3.8,5.6-1,13.9,4.5,17.1C42.4,451.1,49.5,448.6,53.3,443L53.3,443z"/>
	</g>
</g>
<g>
	<g>
		<path class="st0" d="M138.6,443c13.9-19.9,27.7-39.9,41.6-59.8c22.1-31.7,44.2-63.5,66.3-95.2c5-7.2,10.1-14.5,15.1-21.7
			c-7.2,0-14.4,0-21.6,0c13.9,19.9,27.7,39.9,41.6,59.8c22.1,31.7,44.2,63.5,66.3,95.2c5,7.2,10.1,14.5,15.1,21.7
			c3.9,5.5,10.9,8.1,17.1,4.5c5.5-3.2,8.4-11.5,4.5-17.1c-13.9-19.9-27.7-39.9-41.6-59.8c-22.1-31.7-44.2-63.5-66.3-95.2
			c-5-7.2-10.1-14.5-15.1-21.7c-5.6-8-16-8-21.6,0c-13.9,19.9-27.7,39.9-41.6,59.8c-22.1,31.7-44.2,63.5-66.3,95.2
			c-5,7.2-10.1,14.5-15.1,21.7c-3.9,5.5-1,13.9,4.5,17.1C127.7,451.1,134.7,448.6,138.6,443L138.6,443z"/>
	</g>
</g>
</svg>
